<svg id="af1e465b-e5dc-47c7-a754-85264e3dba56" data-name="Layer 1" xmlns="http://www.w3.org/2000/svg" width="916" height="587.36599" viewBox="0 0 916 587.36599"><circle cx="248.80709" cy="123.96002" r="73" fill="#ff6584"/><polygon points="636.807 425.96 40.957 425.96 255.127 119.74 338.877 0 402.627 91.14 636.807 425.96" fill="#f2f2f2"/><polygon points="610.779 115.96 393.956 425.96 827.602 425.96 610.779 115.96 393.956 425.96 827.602 425.96 610.779 115.96" fill="#f2f2f2"/><path d="M480.87691,156.317l4.93018,85.96L469.51575,365.972s134.56693,70.84761,134.92913,74.0763-28.34645,94.06461-28.34645,94.06461L778.80709,582.277Z" transform="translate(-142 -156.31701)" fill="#e6e6e6"/><path d="M752.77873,272.277l35.35119,83.17774L850.80709,481.277l37.10236,18.96875s-2.43307,29.46307-2.26772,33.24716,83.9599,48.78409,83.9599,48.78409Z" transform="translate(-142 -156.31701)" fill="#e6e6e6"/><path d="M1057,582.277H143a1,1,0,0,1,0-2h914a1,1,0,0,1,0,2Z" transform="translate(-142 -156.31701)" fill="#ccc"/><circle cx="202.57055" cy="288.55266" r="78.23654" fill="#ccc"/><path d="M286.80321,392.6138a78.24264,78.24264,0,0,0,130.3652,82.80326,78.24328,78.24328,0,1,1-130.3652-82.80326Z" transform="translate(-142 -156.31701)" opacity="0.2" style="isolation:isolate"/><polygon points="202.785 288.553 203.001 288.553 206.869 510.366 198.702 510.366 202.785 288.553" fill="#3f3d56"/><circle cx="303.57055" cy="396.73945" r="67.23654" fill="#81bc70"/><path d="M395.92526,508.14773A67.24177,67.24177,0,0,0,507.9612,579.30891a67.24233,67.24233,0,1,1-112.03594-71.16118Z" transform="translate(-142 -156.31701)" opacity="0.2" style="isolation:isolate"/><polygon points="303.755 396.739 303.94 396.739 307.265 587.366 300.246 587.366 303.755 396.739" fill="#3f3d56"/><circle cx="395.0419" cy="201.19489" r="94.23483" fill="#81bc70"/><path d="M606.62187,294.57042a94.24218,94.24218,0,0,1-157.02309,99.73539,94.24295,94.24295,0,1,0,157.02309-99.73539Z" transform="translate(-142 -156.31701)" opacity="0.2" style="isolation:isolate"/><polygon points="394.783 201.195 394.524 201.195 389.864 468.366 399.702 468.366 394.783 201.195" fill="#3f3d56"/><path d="M680.76274,272.90444,693.5576,262.671c-9.93976-1.09662-14.0238,4.32429-15.69525,8.615-7.76532-3.22446-16.21881,1.00136-16.21881,1.00136l25.6001,9.29375A19.37207,19.37207,0,0,0,680.76274,272.90444Z" transform="translate(-142 -156.31701)" fill="#3f3d56"/><path d="M697.34648,193.14571l12.7948-10.23343c-9.93976-1.09662-14.0238,4.32431-15.69525,8.615-7.76532-3.22445-16.21881,1.00135-16.21881,1.00135l25.6001,9.29376A19.37253,19.37253,0,0,0,697.34648,193.14571Z" transform="translate(-142 -156.31701)" fill="#3f3d56"/><path d="M789.474,277.09826l12.7948-10.23343c-9.93975-1.09662-14.0238,4.32431-15.69525,8.615-7.76532-3.22446-16.21881,1.00137-16.21881,1.00137l25.6001,9.29373A19.37236,19.37236,0,0,0,789.474,277.09826Z" transform="translate(-142 -156.31701)" fill="#3f3d56"/><path d="M819.56241,728.05126s.48959-10.2584,10.52588-9.066" transform="translate(-142 -156.31701)" fill="#3f3d56"/><path d="M862.09951,728.05126s.48958-10.2584,10.52587-9.066" transform="translate(-142 -156.31701)" fill="#3f3d56"/><path d="M842.24884,728.05126s.48958-10.2584,10.52587-9.066" transform="translate(-142 -156.31701)" fill="#3f3d56"/><path d="M801.30037,728.05126s-.48959-10.2584-10.52588-9.066" transform="translate(-142 -156.31701)" fill="#3f3d56"/><path d="M843.83746,728.76021s-.48958-10.25839-10.52587-9.066" transform="translate(-142 -156.31701)" fill="#3f3d56"/><rect x="704.53942" y="568.70883" width="1.19716" height="136.52287" transform="matrix(0.8346, -0.55086, 0.55086, 0.8346, -376.25041, 337.47463)" fill="#2f2e41"/><polygon points="480.961 563.067 488.299 563.066 491.79 534.76 480.959 534.761 480.961 563.067" fill="#a0616a"/><path d="M621.08859,716.98762l14.4523-.00058h.00059a9.21061,9.21061,0,0,1,9.21013,9.21v.29929l-23.66258.00088Z" transform="translate(-142 -156.31701)" fill="#2f2e41"/><polygon points="432.999 556.043 439.895 558.553 452.858 533.148 442.68 529.444 432.999 556.043" fill="#a0616a"/><path d="M574.05945,709.46806l13.58075,4.9429.00054.0002A9.21061,9.21061,0,0,1,593.145,726.216l-.10237.28124-22.23557-8.093Z" transform="translate(-142 -156.31701)" fill="#2f2e41"/><path d="M620.86825,526.13824l15.56325,4.78869,12.57031,20.95052-4.78869,24.54205-2.39435,21.54911v95.77383s-18.41949,4.7887-26.26946,0l2.92459-55.66854L598.72055,697.334l-22.1477-8.38021,25.14063-83.20351a39.82929,39.82929,0,0,1,3.008-18.00311A24.68907,24.68907,0,0,1,615.481,575.82091v-4.78869l-4.78869-30.52791Z" transform="translate(-142 -156.31701)" fill="#2f2e41"/><circle cx="490.66483" cy="352.70247" r="14.7019" fill="#a0616a"/><path d="M646.85742,505.18627A9.74586,9.74586,0,0,0,636.534,509.8309c-.50479-1.86038-3.50593-1.76455-4.61642-.1889s-.86487,3.70467-.50457,5.59835.76805,3.95169-.10632,5.66964a5.25375,5.25375,0,0,1-4.59291,2.612,9.77074,9.77074,0,0,1-5.21615-1.65992,17.43555,17.43555,0,0,1,4.31527-31.60513c3.6333-1.0456,7.49091-.88406,11.26582-.67385a26.80864,26.80864,0,0,1,9.0248,1.57966c2.82734,1.19647,5.34053,3.57641,5.86214,6.60186s-1.24932,8.44369-4.30786,8.70964" transform="translate(-142 -156.31701)" fill="#2f2e41"/><path d="M623.68445,492.323a13.93328,13.93328,0,0,0,3.84051-1.22935,4.558,4.558,0,0,0,2.41812-3.02326,2.66273,2.66273,0,0,0-1.86153-3.0501,5.89593,5.89593,0,0,0-2.83584.46906,2.87684,2.87684,0,0,1-2.75037-.26641c-.791-.74135-.6016-2.082-1.27758-2.92475a2.532,2.532,0,0,0-2.83513-.52483,7.49448,7.49448,0,0,0-2.46057,1.8398l-3.62294,3.58872c-.70485.69819-1.46776,1.565-1.28858,2.51738a2.11085,2.11085,0,0,0,2.43657,1.389,6.4218,6.4218,0,0,0,2.76869-1.41126,7.16139,7.16139,0,0,0-2.64146,2.92167,3.55811,3.55811,0,0,0,.38982,3.69526c1.2938,1.49116,3.74666,1.28681,5.63.5428a14.01563,14.01563,0,0,0,6.20983-4.83265" transform="translate(-142 -156.31701)" fill="#2f2e41"/><path d="M623.71431,487.97162c-3.31756-.75952-6.59509-1.84686-8.90009-3.65828s-3.45277-4.47007-2.1446-6.70438a6.81316,6.81316,0,0,0,.34151,7.38749,13.266,13.266,0,0,0,8.02792,4.90065,3.45327,3.45327,0,0,0,2.06253-.0057c.59784-.26636.61723-1.04941-.0793-1.15074" transform="translate(-142 -156.31701)" fill="#2f2e41"/><path d="M664.91743,574.517a6.30052,6.30052,0,0,0-.81869.56045l-28.33915-8.83978-1.59372-7.03347-10.92913,1.01783,1.61132,12.72557a4.78867,4.78867,0,0,0,3.99879,4.12774l33.3542,5.30338a6.28342,6.28342,0,1,0,2.71638-7.86172Z" transform="translate(-142 -156.31701)" fill="#a0616a"/><path d="M622.06542,536.31421s2.56038-7.31613,10.259-6.651,3.5085,29.99587,3.5085,29.99587L620.86825,580.011Z" transform="translate(-142 -156.31701)" fill="#2f2e41"/><path d="M707.57659,718.70546l-5.35224-11.45406,8.27225-3.86561,5.35228,11.45372,0,.00034a4.56545,4.56545,0,0,1-8.27226,3.86561Z" transform="translate(-142 -156.31701)" fill="#81bc70"/><circle cx="547.15981" cy="532.25938" r="5.61898" fill="#81bc70"/><path d="M732.1927,720.99408,726.84045,709.54l8.27209-3.86564,5.35227,11.45372a4.56546,4.56546,0,0,1-8.27211,3.866Z" transform="translate(-142 -156.31701)" fill="#81bc70"/><path d="M689.17487,699.9465a11.95379,11.95379,0,0,1,12.99441-10.7837l37.63563,3.49907a5.05268,5.05268,0,0,1,4.55788,5.49245l-.39816,4.28253a14.54913,14.54913,0,0,1-15.81565,13.125l-28.19041-2.62092A11.95379,11.95379,0,0,1,689.17487,699.9465Z" transform="translate(-142 -156.31701)" fill="#3f3d56"/><path d="M696.15234,719.05619l1.17037-12.58841,9.09163.84527L705.244,719.90146a4.56542,4.56542,0,0,1-9.09163-.84527Z" transform="translate(-142 -156.31701)" fill="#3f3d56"/><path d="M722.53374,721.50893l1.17037-12.58841,9.09163.84527-1.17037,12.58841a4.56542,4.56542,0,0,1-9.09163-.84527Z" transform="translate(-142 -156.31701)" fill="#3f3d56"/><path d="M764.15435,675.14277a5.619,5.619,0,1,1,8.07283,7.818l-10.26111,10.5956-8.07283-7.818Z" transform="translate(-142 -156.31701)" fill="#81bc70"/><path d="M739.90412,695.64019l8.22048-8.48845a10.83431,10.83431,0,0,1,15.30258-.24542l2.13006,2.06282a12.91767,12.91767,0,0,1,.29261,18.24525l-6.77274,6.99352a4.05643,4.05643,0,0,1-5.72932.09177L739.996,701.36939A4.05628,4.05628,0,0,1,739.90412,695.64019Z" transform="translate(-142 -156.31701)" fill="#3f3d56"/><path d="M765.37591,673.88139a3.863,3.863,0,1,1,5.55007,5.37487l-11.48267,11.857-5.55007-5.37486Z" transform="translate(-142 -156.31701)" fill="#3f3d56"/><path d="M748.64149,693.9294l14.632,14.1701a5.619,5.619,0,0,1-7.818,8.07284l-14.632-14.17011Z" transform="translate(-142 -156.31701)" fill="#3f3d56"/><ellipse cx="763.09332" cy="715.60605" rx="2.37051" ry="1.31695" transform="translate(-423.83214 609.62997) rotate(-45.9188)" fill="#81bc70"/><rect x="741.48342" y="691.04881" width="2.99293" height="16.76042" transform="translate(1343.95977 1242.54103) rotate(-180)" fill="#2f2e41"/><polygon points="773.406 480.41 764.82 480.41 760.736 447.293 773.408 447.293 773.406 480.41" fill="#ffb8b8"/><path d="M917.59569,645.05012l-27.68459-.001v-.35017a10.77618,10.77618,0,0,1,10.77561-10.77544h.00069l16.9088.00068Z" transform="translate(-142 -156.31701)" fill="#2f2e41"/><polygon points="863.41 393.957 865.068 402.381 833.364 412.786 830.916 400.353 863.41 393.957" fill="#ffb8b8"/><path d="M1013.15256,546.51732,1018.5,573.68056l-.34357.06765a10.7762,10.7762,0,0,1-12.65421-8.49088l-.00013-.00068-3.266-16.59039Z" transform="translate(-142 -156.31701)" fill="#2f2e41"/><path d="M906.22506,535.0321s24.72628,25.377,34.48667,37.08944,15.61661,3.25349,15.61661,3.25349l24.95243-6.68548,14.08912-4.37632s-2.60277-12.36319-3.25346-11.71246-38.84887,4.18316-38.84887,4.18316-9.953-11.99147-10.60373-19.79978-17.56869-16.918-17.56869-16.918Z" transform="translate(-142 -156.31701)" fill="#2f2e41"/><path d="M910.77987,534.3815s-5.20554,22.12355-12.69595,28.48373-3.57136,11.85914-3.57136,11.85914l10.41108,44.89775,13.01385-.65066s-4.6384-36.62274-5.28909-41.17762,15.70017-25.84373,15.70017-25.84373Z" transform="translate(-142 -156.31701)" fill="#2f2e41"/><circle cx="725.92141" cy="335.8063" r="11.06177" fill="#ffb8b8"/><path d="M891.90976,523.97036c1.95208,0,7.80831,11.06174,7.80831,11.06174s13.01385,3.90416,14.96592.65066,7.15762-8.459,11.71247-10.41108,2.60274-3.90409,0-5.8562-11.06171-7.15771-18.87-16.26734S887.355,492.0864,886.05359,492.0864s-4.55485,13.01385-4.55485,13.01385C879.54667,509.0044,889.95768,523.97036,891.90976,523.97036Z" transform="translate(-142 -156.31701)" fill="#81bc70"/><path d="M863.43247,486.97562c2.26015,1.05287,4.892,6.56862,8.06567,4.16809a7.91036,7.91036,0,0,1,.85213-.6911,2.22,2.22,0,0,1,2.57532.7363c.64454.71851,1.02392,1.63942,1.642,2.38083a2.34043,2.34043,0,0,0,2.5362.92739l1.51595-3.292a11.11438,11.11438,0,0,0,.9007-2.44348,7.52406,7.52406,0,0,0-2.08584-6.28679,22.25562,22.25562,0,0,0-5.519-4.04137,14.95713,14.95713,0,0,0-4.38232-1.96337,5.0623,5.0623,0,0,0-4.519,1.03486,12.64734,12.64734,0,0,1-1.32847,1.36827,11.71614,11.71614,0,0,1-2.70882.91618c-1.74639.66908-2.7661,2.44626-3.64659,4.09623a5.48053,5.48053,0,0,0-.82939,2.38822C856.418,490.14061,861.41031,486.03364,863.43247,486.97562Z" transform="translate(-142 -156.31701)" fill="#2f2e41"/><path d="M887.68171,645.58871c17.99126-.64118,46.52514-.0057,46.81171.00064l.39842.00826.18873-.35012c.04385-.0807,4.40868-8.02308,10.36151-6.82847l.25544-1.276c-6.19552-1.241-10.58389,5.48-11.56248,7.13664-3.49113-.07436-29.616-.59474-46.50035.00891-17.39456.62209-20.17082-5.39431-20.1975-5.45529l-1.20543.49059c.108.27005,2.7197,6.31118,18.93551,6.31118Q886.373,645.63537,887.68171,645.58871Z" transform="translate(-142 -156.31701)" fill="#2f2e41"/><rect x="740.45266" y="490.57377" width="5.20554" height="5.20554" rx="2.41154" fill="#2f2e41"/><path d="M787.76195,490.57377h.3825a2.4115,2.4115,0,0,1,2.4115,2.4115v.3825a2.41154,2.41154,0,0,1-2.41154,2.41154h-.38247a2.41154,2.41154,0,0,1-2.41154-2.41154v-.38247a2.41154,2.41154,0,0,1,2.41154-2.41154Z" fill="#2f2e41"/><path d="M887.824,547.61733a4.41209,4.41209,0,0,1,.67286-.17338l8.40039-19.01718-2.97413-4.08208L899.497,519.051l5.9674,6.71484a3.35367,3.35367,0,0,1,.33347,4.011l-12.57653,20.03163a4.40047,4.40047,0,1,1-5.39738-2.19114Z" transform="translate(-142 -156.31701)" fill="#ffb8b8"/><path d="M906.225,520.06614c0,.65066-7.80837,9.76036-10.01913,8.8898s-2.99468-3.68419-6.32824-6.58872-6.42683-18.56836-6.42683-18.56836S906.225,519.41548,906.225,520.06614Z" transform="translate(-142 -156.31701)" fill="#81bc70"/></svg>